G04 ================== begin FILE IDENTIFICATION RECORD ==================*
G04 Layout Name:  C:/USERS/USER/DESKTOP/ORCAD WORK/CAD_4/allegro/CAD_4.brd*
G04 Film Name:    SolderT*
G04 File Format:  Gerber RS274X*
G04 File Origin:  Cadence Allegro 17.2-P019*
G04 Origin Date:  Thu Aug 01 11:38:37 2019*
G04 *
G04 Layer:  VIA CLASS/SOLDERMASK_TOP*
G04 Layer:  PIN/SOLDERMASK_TOP*
G04 Layer:  PACKAGE GEOMETRY/SOLDERMASK_TOP*
G04 Layer:  BOARD GEOMETRY/SOLDERMASK_TOP*
G04 *
G04 Offset:    (0.000 0.000)*
G04 Mirror:    No*
G04 Mode:      Positive*
G04 Rotation:  0*
G04 FullContactRelief:  No*
G04 UndefLineWidth:     0.000*
G04 ================== end FILE IDENTIFICATION RECORD ====================*
%FSLAX25Y25*MOMM*%
%IR0*IPPOS*OFA0.00000B0.00000*MIA0B0*SFA1.00000B1.00000*%
%ADD12C,2.032*%
%ADD11C,1.905*%
%ADD10C,3.683*%
%ADD13R,1.905X1.905*%
%LPD*%
G75*
G54D10*
X500000Y500000D03*
Y6500000D03*
X9500000Y500000D03*
Y6500000D03*
G54D11*
X800000Y2608000D03*
X1054000Y2354000D03*
X800000Y2100000D03*
X500000Y3492000D03*
Y3746000D03*
Y4000000D03*
X1500000Y3292000D03*
Y3546000D03*
X1600000Y4892000D03*
Y5146000D03*
X2638000Y2038000D03*
Y2800000D03*
X3400000Y2038000D03*
X2892000D03*
X3146000D03*
X2892000Y2800000D03*
X3146000D03*
X4938000Y2138000D03*
Y2900000D03*
X5192000Y2138000D03*
X5446000D03*
X5700000D03*
X5192000Y2900000D03*
X5446000D03*
X6538000Y2138000D03*
Y2900000D03*
X6792000Y2138000D03*
X7046000D03*
X7300000D03*
X6792000Y2900000D03*
X7046000D03*
X8138000Y2138000D03*
X8392000D03*
X8646000D03*
X8138000Y2900000D03*
X8392000D03*
X8646000D03*
X8900000Y2138000D03*
X9500000Y3754000D03*
Y3500000D03*
G54D12*
X1500000Y2246000D03*
Y2500000D03*
X2286000Y3048000D03*
Y3302000D03*
X2400000Y3954000D03*
Y3700000D03*
Y4754000D03*
Y4500000D03*
Y5454000D03*
Y5200000D03*
X3100000Y3800000D03*
Y4816000D03*
X4100000Y2246000D03*
Y2500000D03*
X3700000Y3800000D03*
Y4816000D03*
X4400000Y3784000D03*
X5000000D03*
X4400000Y4800000D03*
X5000000D03*
X5600000Y3784000D03*
Y4800000D03*
X6300000Y3800000D03*
Y4816000D03*
X7100000Y3800000D03*
Y4816000D03*
X7700000Y3784000D03*
Y4800000D03*
X8300000Y3784000D03*
Y4800000D03*
X8900000Y3800000D03*
Y4816000D03*
G54D13*
X1500000Y3800000D03*
X1600000Y5400000D03*
X3400000Y2800000D03*
X5700000Y2900000D03*
X7300000D03*
X8900000D03*
M02*
